<svg version="1.1" xmlns="http://www.w3.org/2000/svg"
     viewBox="0 0 34 18">
    <path d="M 1.2128434,7.6128842
             C 3.9199554,4.6867562 4.0079404,4.6682832 15.02461,4.7130862
             C 26.609596,4.7601962 27.425955,5.4259502 28.447889,1.0845667
             C 28.780192,-0.32712308 29.292577,-0.41871848 29.689396,1.1530917
             C 30.131804,2.9054782 31.161193,4.8354442 32.426594,7.0137822
             C 33.064201,8.1113962 33.825981,9.0920952 33.952781,9.3002492
             C 34.316303,9.8970032 32.516411,11.745973 30.768571,12.568902
             C 29.226619,13.294894 28.990674,13.310472 19.491005,13.313514
             C 7.8463073,13.317314 7.5919843,13.393884 6.6177334,16.475353
             C 5.9268444,18.660577 5.3779144,18.088688 5.1759954,17.263748
             C 4.1804824,13.196579 2.2614194,11.662419 1.3325554,10.78793
             C -0.5926676,8.9754092 -0.2522186,9.1964752 1.2128434,7.6128842
             Z"/>
</svg>
