<svg version="1.1" xmlns="http://www.w3.org/2000/svg"
     viewBox="0 0 18 34">
    <path d="M 7.6128838,32.787157
             C 4.686756,30.080045 4.6682831,29.99206 4.7130864,18.97539
             C 4.7602002,7.3904048 5.4259501,6.5740454 1.0845667,5.5521116
             C -0.3271231,5.2198088 -0.4187185,4.7074235 1.1530918,4.3106042
             C 2.9054786,3.8681967 4.8354438,2.8388074 7.0137818,1.5734065
             C 8.111397,0.93579966 9.092095,0.17401934 9.300249,0.0472191
             C 9.897004,-0.31630267 11.745973,1.4835891 12.568902,3.2314292
             C 13.294894,4.7733815 13.310472,5.0093264 13.313514,14.508996
             C 13.317314,26.153693 13.393884,26.408016 16.475353,27.382267
             C 18.660577,28.073156 18.088688,28.622086 17.263748,28.824005
             C 13.196579,29.819518 11.662419,31.738581 10.78793,32.667445
             C 8.97541,34.592668 9.196475,34.252219 7.6128838,32.787157
             Z"/>
</svg>
