<svg version="1.1" xmlns="http://www.w3.org/2000/svg">
    <style>
        use { display: none; }
        use:target { display: block; }
    </style>
    <defs>
        <symbol id="logo" viewBox="-61.80339887 -80.90169944 161.8033989 180.90169944">
            <path d="M 0 0
                     A 30.90169944 30.90169944 0 0 1 61.80339887 0
                     A 80.90169944 80.90169944 0 0 1 -61.80339887 68.71214994
                     L -61.80339887 78.61513778
                     A 100 100 0 0 0 100 0
                     A 80.90169944 80.90169944 0 0 0 -61.80339887 0
                     A 30.90169944 30.90169944 0 0 0 0 0"/>
        </symbol>
        <symbol id="vertical-stroke-pattern" viewBox="0 0 24.863281 34.000576">
            <path d="M 0.289063,5.7568961e-4
                     C 0.228242,0.00362339 0.173575,0.01905055 0.126954,0.04745069
                     C 0.098495,0.06478643 0.055621,0.09421764 0,0.13338819
                     V 34.000576
                     C 0.354133,33.98431 0.756565,33.580607 1.615235,32.668544
                     C 2.489724,31.73968 4.024627,29.820307 8.091797,28.824794
                     C 8.150772,28.810358 8.208198,28.793873 8.263672,28.775966
                     C 8.612122,30.678444 9.347286,31.377932 10.871094,32.787685
                     C 11.688424,33.543839 12.024942,34.000314 12.408204,34.000576
                     C 12.767349,34.00033 13.168425,33.599543 14.044922,32.668544
                     C 14.919411,31.73968 16.454316,29.820307 20.521485,28.824794
                     C 20.58046,28.810359 20.637886,28.793873 20.69336,28.775966
                     C 21.04181,30.678443 21.776974,31.377932 23.300782,32.787685
                     C 24.118111,33.543839 24.456079,34.000314 24.839844,34.000576
                     H 24.863282
                     V 0.13143507
                     C 24.513351,0.3774011 23.651093,1.0229834 22.701172,1.5747945
                     C 20.522834,2.8401954 18.594184,3.8687151 16.841797,4.3111226
                     C 16.627752,4.3651603 16.444235,4.421514 16.291016,4.4790913
                     C 16.183323,4.0059706 16.033396,3.6711719 15.826172,3.2310445
                     C 15.080393,1.6470644 13.493089,0.02100408 12.757813,5.7568961e-4
                     H 12.720704
                     C 12.659895,0.00363033 12.605216,0.01905055 12.558594,0.04745069
                     C 12.35044,0.1742509 11.3691,0.93718757 10.271485,1.5747945
                     C 8.093147,2.8401954 6.162544,3.8687151 4.410157,4.3111226
                     C 4.196111,4.3651606 4.014548,4.4215137 3.861329,4.4790913
                     C 3.753635,4.0059702 3.603709,3.6711721 3.396485,3.2310445
                     C 2.637847,1.6197544 1.00675,-0.03538716 0.289063,5.7568961e-4
                     Z
                     M 4.00586,5.4634663
                     C 4.107863,5.4946601 4.219882,5.5246121 4.341797,5.5533101
                     C 8.68318,6.5752439 8.017818,7.3902004 7.970704,18.975185
                     C 7.953215,23.275613 7.946205,25.912385 8.117188,27.688076
                     C 7.90368,27.590374 7.634765,27.488364 7.302735,27.383388
                     C 4.221266,26.409138 4.144425,26.155038 4.140626,14.510341
                     C 4.138944,9.2593359 4.133066,6.8387105 4.00586,5.4634663
                     Z
                     M 16.4375,5.4634663
                     C 16.539502,5.4946599 16.651524,5.5246123 16.773438,5.5533101
                     C 21.114821,6.5752439 20.449458,7.3902004 20.402344,18.975185
                     C 20.384855,23.275612 20.375893,25.912385 20.546876,27.688076
                     C 20.333369,27.590375 20.064451,27.488364 19.732422,27.383388
                     C 16.650953,26.409138 16.576066,26.155038 16.572266,14.510341
                     C 16.570585,9.2593366 16.564706,6.8387106 16.4375,5.4634663
                     Z"/>
        </symbol>
        <symbol id="horizontal-stroke-pattern" viewBox="0 0 34.000576 24.863281">
            <path d="M 34,0.289063
                     C 33.996953,0.228242 33.981525,0.173575 33.953125,0.126954
                     C 33.93579,0.098495 33.906358,0.055621 33.867188,0
                     H 0
                     C 0.016266,0.354133 0.419969,0.756565 1.332032,1.615235
                     C 2.260896,2.489724 4.180269,4.024627 5.175782,8.091797
                     C 5.190218,8.150772 5.206703,8.208198 5.22461,8.263672
                     C 3.322132,8.612122 2.622644,9.347286 1.212891,10.871094
                     C 0.456737,11.688424 2.62e-4,12.024942 0,12.408204
                     C 2.46e-4,12.767349 0.401033,13.168425 1.332032,14.044922
                     C 2.260896,14.919411 4.180269,16.454316 5.175782,20.521485
                     C 5.190217,20.58046 5.206703,20.637886 5.22461,20.69336
                     C 3.322133,21.04181 2.622644,21.776974 1.212891,23.300782
                     C 0.456737,24.118111 2.62e-4,24.456079 0,24.839844
                     V 24.863282
                     H 33.869141
                     C 33.623175,24.513351 32.977593,23.651093 32.425782,22.701172
                     C 31.160381,20.522834 30.131861,18.594184 29.689453,16.841797
                     C 29.635416,16.627752 29.579062,16.444235 29.521485,16.291016
                     C 29.994605,16.183323 30.329404,16.033396 30.769532,15.826172
                     C 32.353512,15.080393 33.979572,13.493089 34,12.757813
                     V 12.720704
                     C 33.996946,12.659895 33.981525,12.605216 33.953125,12.558594
                     C 33.826325,12.35044 33.063388,11.3691 32.425782,10.271485
                     C 31.160381,8.093147 30.131861,6.162544 29.689453,4.410157
                     C 29.635415,4.196111 29.579062,4.014548 29.521485,3.861329
                     C 29.994606,3.753635 30.329404,3.603709 30.769532,3.396485
                     C 32.380822,2.637847 34.035963,1.00675 34,0.289063
                     Z
                     M 28.53711,4.00586
                     C 28.505916,4.107863 28.475964,4.219882 28.447266,4.341797
                     C 27.425332,8.68318 26.610376,8.017818 15.025391,7.970704
                     C 10.724963,7.953215 8.088191,7.946205 6.3125,8.117188
                     C 6.410202,7.90368 6.512212,7.634765 6.617188,7.302735
                     C 7.591438,4.221266 7.845538,4.144425 19.490235,4.140626
                     C 24.74124,4.138944 27.161866,4.133066 28.53711,4.00586
                     Z
                     M 28.53711,16.4375
                     C 28.505916,16.539502 28.475964,16.651524 28.447266,16.773438
                     C 27.425332,21.114821 26.610376,20.449458 15.025391,20.402344
                     C 10.724964,20.384855 8.088191,20.375893 6.3125,20.546876
                     C 6.410201,20.333369 6.512212,20.064451 6.617188,19.732422
                     C 7.591438,16.650953 7.845538,16.576066 19.490235,16.572266
                     C 24.741239,16.570585 27.161865,16.564706 28.53711,16.4375
                     Z"/>
        </symbol>
    </defs>
    <!-- cannot use a symbol in mask-image, alse see <style> above -->
    <use id="horizontal-motif" href="#vertical-stroke-pattern"/>
    <use id="vertical-motif" href="#horizontal-stroke-pattern"/>
</svg>
