<svg version="1.1" xmlns="http://www.w3.org/2000/svg">
    <style>
        use { display: none; }
        use:target { display: block; }
    </style>
    <defs>
        <symbol id="logo" viewBox="-61.80339887 -80.90169944 161.8033989 180.90169944">
            <path d="M 0 0
                     A 30.90169944 30.90169944 0 0 1 61.80339887 0
                     A 80.90169944 80.90169944 0 0 1 -61.80339887 68.71214994
                     L -61.80339887 78.61513778
                     A 100 100 0 0 0 100 0
                     A 80.90169944 80.90169944 0 0 0 -61.80339887 0
                     A 30.90169944 30.90169944 0 0 0 0 0"/>
        </symbol>
        <pattern id="stroke-pattern"
                 x="0" y="0" width="24.863281" height="34.000576"
                 patternUnits="userSpaceOnUse"
                 patternTransform="rotate(-45)">
            <path d="M 0.289063,5.7568961e-4
                     C 0.228242,0.00362339 0.173575,0.01905055 0.126954,0.04745069
                     C 0.098495,0.06478643 0.055621,0.09421764 0,0.13338819
                     V 34.000576
                     C 0.354133,33.98431 0.756565,33.580607 1.615235,32.668544
                     C 2.489724,31.73968 4.024627,29.820307 8.091797,28.824794
                     C 8.150772,28.810358 8.208198,28.793873 8.263672,28.775966
                     C 8.612122,30.678444 9.347286,31.377932 10.871094,32.787685
                     C 11.688424,33.543839 12.024942,34.000314 12.408204,34.000576
                     C 12.767349,34.00033 13.168425,33.599543 14.044922,32.668544
                     C 14.919411,31.73968 16.454316,29.820307 20.521485,28.824794
                     C 20.58046,28.810359 20.637886,28.793873 20.69336,28.775966
                     C 21.04181,30.678443 21.776974,31.377932 23.300782,32.787685
                     C 24.118111,33.543839 24.456079,34.000314 24.839844,34.000576
                     H 24.863282
                     V 0.13143507
                     C 24.513351,0.3774011 23.651093,1.0229834 22.701172,1.5747945
                     C 20.522834,2.8401954 18.594184,3.8687151 16.841797,4.3111226
                     C 16.627752,4.3651603 16.444235,4.421514 16.291016,4.4790913
                     C 16.183323,4.0059706 16.033396,3.6711719 15.826172,3.2310445
                     C 15.080393,1.6470644 13.493089,0.02100408 12.757813,5.7568961e-4
                     H 12.720704
                     C 12.659895,0.00363033 12.605216,0.01905055 12.558594,0.04745069
                     C 12.35044,0.1742509 11.3691,0.93718757 10.271485,1.5747945
                     C 8.093147,2.8401954 6.162544,3.8687151 4.410157,4.3111226
                     C 4.196111,4.3651606 4.014548,4.4215137 3.861329,4.4790913
                     C 3.753635,4.0059702 3.603709,3.6711721 3.396485,3.2310445
                     C 2.637847,1.6197544 1.00675,-0.03538716 0.289063,5.7568961e-4
                     Z
                     M 4.00586,5.4634663
                     C 4.107863,5.4946601 4.219882,5.5246121 4.341797,5.5533101
                     C 8.68318,6.5752439 8.017818,7.3902004 7.970704,18.975185
                     C 7.953215,23.275613 7.946205,25.912385 8.117188,27.688076
                     C 7.90368,27.590374 7.634765,27.488364 7.302735,27.383388
                     C 4.221266,26.409138 4.144425,26.155038 4.140626,14.510341
                     C 4.138944,9.2593359 4.133066,6.8387105 4.00586,5.4634663
                     Z
                     M 16.4375,5.4634663
                     C 16.539502,5.4946599 16.651524,5.5246123 16.773438,5.5533101
                     C 21.114821,6.5752439 20.449458,7.3902004 20.402344,18.975185
                     C 20.384855,23.275612 20.375893,25.912385 20.546876,27.688076
                     C 20.333369,27.590375 20.064451,27.488364 19.732422,27.383388
                     C 16.650953,26.409138 16.576066,26.155038 16.572266,14.510341
                     C 16.570585,9.2593366 16.564706,6.8387106 16.4375,5.4634663
                     Z"/>
        </pattern>
        <rect id="stroke-pattern-rect" width="100%" height="100%" fill="url(#stroke-pattern)"/>
    </defs>
    <!-- cannot use a symbol in background-image, alse see <style> above -->
    <use id="motif" href="#stroke-pattern-rect" />
</svg>
